<svg width="172" height="244" viewBox="0 0 172 244" fill="none" xmlns="http://www.w3.org/2000/svg">
<path d="M85.8952 243.13L16.0556 223.662L0.492188 48.3789H171.508L155.928 223.635L85.8952 243.13Z" fill="#264DE4"/>
<path d="M142.59 212.475L155.904 62.7109H86V228.229L142.59 212.475Z" fill="#2965F1"/>
<path d="M36.1709 127.721L38.0898 149.218H85.9997V127.721H36.1709Z" fill="#EBEBEB"/>
<path d="M32.3154 84.209L34.2616 105.707H85.9999V84.209H32.3154Z" fill="#EBEBEB"/>
<path d="M85.9998 183.553L85.9059 183.578L62.0622 177.113L60.538 159.968H39.0464L42.0458 193.722L85.9012 205.947L85.9998 205.92V183.553Z" fill="#EBEBEB"/>
<path d="M40.7393 0.744141H66.6697V11.6326H51.5829V22.521H66.6697V33.4095H40.7393V0.744141Z" fill="white"/>
<path d="M71.856 0.744141H97.7864V10.2123H82.6996V12.106H97.7864V33.8829H71.856V23.9412H86.9427V22.0476H71.856V0.744141Z" fill="white"/>
<path d="M102.973 0.744141H128.903V10.2123H113.816V12.106H128.903V33.8829H102.973V23.9412H118.059V22.0476H102.973V0.744141Z" fill="white"/>
<path d="M135.691 127.721L139.556 84.209H85.9258V105.707H116.094L114.146 127.721H85.9258V149.219H112.289L109.804 177.1L85.9258 183.571V205.937L129.816 193.723L130.138 190.091L135.169 133.494L135.691 127.721Z" fill="white"/>
</svg>
