<svg width="29" height="29" viewBox="0 0 29 29" fill="none" xmlns="http://www.w3.org/2000/svg">
<path d="M24.0065 27.1877H4.98433C4.56454 27.2016 4.14643 27.1282 3.75646 26.9722C3.36648 26.8162 3.01311 26.581 2.7187 26.2814C2.42141 25.9891 2.18752 25.6387 2.03161 25.252C1.87569 24.8654 1.80109 24.4507 1.81245 24.0339V4.98457C1.79857 4.56478 1.87194 4.14668 2.02793 3.7567C2.18392 3.36672 2.41914 3.01335 2.7187 2.71894C3.01311 2.41938 3.36648 2.18417 3.75646 2.02818C4.14643 1.87218 4.56454 1.79881 4.98433 1.81269H24.0156C24.4354 1.79881 24.8535 1.87218 25.2434 2.02818C25.6334 2.18417 25.9868 2.41938 26.2812 2.71894C26.5808 3.01335 26.816 3.36672 26.972 3.7567C27.128 4.14668 27.2013 4.56478 27.1875 4.98457V24.0158C27.1827 24.8571 26.8457 25.6625 26.25 26.2566C25.6542 26.8507 24.8479 27.1853 24.0065 27.1877ZM15.7778 22.8286V15.2252H18.3425L18.7231 12.2708H15.7778V10.6124C15.7517 10.3079 15.7793 10.0011 15.8593 9.70613C15.8848 9.60013 15.9277 9.49907 15.9862 9.40707C16.1765 9.06269 16.675 8.89051 17.4634 8.89051H18.8228V6.28957C18.0706 6.2043 17.3141 6.16194 16.5571 6.16269C15.9086 6.10873 15.258 6.23816 14.6796 6.53621C14.1011 6.83426 13.618 7.28892 13.2856 7.84832C12.8961 8.50586 12.6983 9.25926 12.7146 10.0233V12.2708H10.1771V15.2252H12.6875V22.8286H15.7778Z" fill="white"/>
</svg>
