<svg width="71" height="71" viewBox="0 0 71 71" fill="none" xmlns="http://www.w3.org/2000/svg">
<path d="M17.7648 70.6963V64.523C17.7648 64.0878 17.4456 63.9 17.0695 63.9C16.3155 63.9 15.3737 64.0878 14.5188 64.4646V70.6963H12.78V59.2341H14.5186V63.0155C15.3451 62.7116 16.3302 62.4511 17.3157 62.4511C18.8951 62.4511 19.4894 63.4218 19.4894 64.7543V70.6963H17.7648ZM22.7346 66.9576C22.7924 69.0297 23.1984 69.4357 24.473 69.4357C25.4731 69.4357 26.6034 69.1022 27.4731 68.7688L27.7628 70.0727C26.8352 70.4934 25.705 70.899 24.3578 70.899C21.4592 70.899 21.0098 69.3054 21.0098 66.7689C21.0098 65.3782 21.1115 64.1173 21.4447 62.958C22.3141 62.6247 23.4735 62.4509 24.9366 62.4509C27.3139 62.4509 28.0381 63.7697 28.0381 66.0737V66.9576H22.7346ZM24.9366 63.9C24.4157 63.9 23.5894 63.9146 22.9084 64.0443C22.8363 64.3922 22.7488 64.8706 22.7199 65.7547H26.3426C26.3426 64.5516 26.1252 63.9 24.9366 63.9ZM31.2977 64.4646V70.6963H29.5587V63.6824C31.0224 62.8856 32.5729 62.6392 33.5876 62.5668V64.0159C32.8776 64.0738 31.9788 64.1607 31.2979 64.4646H31.2977ZM38.1808 70.899C35.5865 70.899 34.4128 69.624 34.4128 66.7111C34.4128 63.6245 35.9633 62.4511 38.1808 62.4511C40.7744 62.4511 41.9484 63.7259 41.9484 66.6386C41.9484 69.7254 40.3976 70.899 38.1808 70.899ZM38.1808 63.9002C36.8474 63.9002 36.1085 64.6679 36.1085 66.7111C36.1085 68.943 36.7315 69.4357 38.1808 69.4357C39.5138 69.4357 40.2529 68.6818 40.2529 66.6386C40.2529 64.4068 39.6299 63.9 38.1808 63.9V63.9002ZM50.3378 70.6963H48.2942C47.8164 69.4211 47.1494 68.1169 46.1206 66.9865H45.2075V70.6963H43.4687V59.2341H45.2075V65.8126H46.0192C46.9032 64.8995 47.584 63.7697 48.0624 62.6536H50.0185C49.3521 64.0014 48.4973 65.1895 47.5407 66.1605C48.6856 67.6096 49.5839 69.1457 50.3376 70.6963H50.3378ZM53.5972 70.899C52.018 70.899 51.4239 69.9284 51.4239 68.595V62.6536H53.1481V68.8123C53.1481 69.2475 53.4666 69.4357 53.8434 69.4357C54.5971 69.4357 55.6259 69.2475 56.4811 68.8705V62.6536H58.22V69.6382C56.1623 70.7687 54.5825 70.899 53.5972 70.899ZM52.829 56.3124H18.1508C15.1843 56.3124 12.78 53.9082 12.78 50.9421V5.37044C12.78 2.40442 15.1844 0 18.1506 0H52.8288C55.7948 0 58.2 2.40442 58.2 5.37044V50.9421C58.2 53.9082 55.7948 56.3124 52.8288 56.3124H52.829Z" fill="#6762A6"/>
<path d="M41.2439 48.5643V26.2011C41.2439 26.2011 42.6985 20.8495 23.3265 28.3904C23.291 28.4861 23.291 7.71092 23.291 7.71092L29.6207 7.67188V20.9828C29.6207 20.9828 47.3433 14.0026 47.3433 26.2765V48.5643H41.2441H41.2439ZM44.8507 15.7279H38.1369C40.5536 12.7732 42.7413 7.71075 42.7413 7.71075H49.6833C49.6833 7.71075 48.4948 11.0099 44.8509 15.7279H44.8507ZM23.406 48.5256V35.7904L29.7744 42.1585L23.406 48.5256Z" fill="white"/>
</svg>
