<svg width="173" height="244" viewBox="0 0 173 244" fill="none" xmlns="http://www.w3.org/2000/svg">
<path d="M172.361 48.3789L156.717 223.635L86.3948 243.13L16.2667 223.662L0.638672 48.3789H172.361Z" fill="#E44D26"/>
<path d="M86.5 228.228L143.324 212.475L156.692 62.7104H86.5V228.228Z" fill="#F16529"/>
<path d="M56.088 105.707H86.5V84.209H32.5938L33.108 89.9764L38.3921 149.219H86.5V127.721H58.0529L56.088 105.707ZM60.9332 159.968H39.3527L42.3642 193.723L86.4011 205.947L86.5 205.92V183.553L86.4058 183.578L62.4639 177.113L60.9332 159.968Z" fill="#EBEBEB"/>
<path d="M16.6157 0.744141H27.5406V11.5378H37.5346V0.744141H48.4602V33.43H37.5353V22.4849H27.5413V33.43H16.6164V0.744141H16.6157ZM62.8261 11.5836H53.2098V0.744141H83.3754V11.5836H73.753V33.43H62.8281V11.5836H62.8275H62.8261ZM88.1627 0.744141H99.5541L106.561 12.2291L113.562 0.744141H124.958V33.43H114.078V17.2291L106.561 28.8507H106.373L98.8521 17.2291V33.43H88.1627V0.744141ZM130.395 0.744141H141.323V22.6263H156.687V33.43H130.394V0.744141H130.395Z" fill="white"/>
<path d="M86.426 149.219H112.898L110.402 177.1L86.4253 183.571V205.937L130.497 193.723L130.82 190.09L135.873 133.494L136.397 127.721H86.426V149.219ZM86.426 105.654V105.707H138.353L138.784 100.875L139.764 89.9764L140.278 84.209H86.426V105.655V105.654Z" fill="white"/>
</svg>
