<svg width="27" height="27" viewBox="0 0 27 27" fill="none" xmlns="http://www.w3.org/2000/svg">
<g clip-path="url(#clip0_26_229)">
<path d="M19.9286 0.118164L20.1411 0.12154C23.8815 0.237125 26.8785 3.30385 26.8819 7.07157V19.9286L26.8785 20.1411C26.7629 23.8815 23.6962 26.8785 19.9285 26.8819H7.07147L6.85897 26.8785C3.1186 26.7629 0.121585 23.6962 0.118164 19.9285V7.07147L0.12154 6.85897C0.237125 3.1186 3.30385 0.121585 7.07157 0.118164H19.9286ZM19.9286 1.81049H7.07147L6.8786 1.81395C4.06238 1.91544 1.81049 4.23047 1.81049 7.07147V19.9286L1.81395 20.1215C1.91544 22.9377 4.23047 25.1896 7.07147 25.1896H19.9286L20.1215 25.1861C22.9377 25.0846 25.1896 22.7696 25.1896 19.9286V7.07147L25.1861 6.8786C25.0846 4.06238 22.7696 1.81049 19.9286 1.81049ZM13.4999 5.90388L13.7238 5.90732C17.8139 6.02935 21.0924 9.38132 21.0962 13.5001C21.0962 17.6953 17.6953 21.0962 13.5 21.0962C9.30479 21.0962 5.90388 17.6953 5.90388 13.5C5.90388 9.37971 9.18442 6.02559 13.2761 5.90712L13.4999 5.90388ZM13.5 7.5962C10.2394 7.5962 7.5962 10.2394 7.5962 13.5C7.5962 16.7606 10.2394 19.4039 13.5 19.4039C16.7606 19.4039 19.4039 16.7606 19.4039 13.5C19.4039 10.2394 16.7606 7.5962 13.5 7.5962ZM20.8929 4.29673C21.5377 4.29673 22.0605 4.81948 22.0605 5.46432C22.0605 6.10917 21.5377 6.63191 20.8929 6.63191C20.2481 6.63191 19.7253 6.10917 19.7253 5.46432C19.7253 4.81948 20.2481 4.29673 20.8929 4.29673Z" fill="white"/>
</g>
<defs>
<clipPath id="clip0_26_229">
<rect width="27" height="27" fill="white"/>
</clipPath>
</defs>
</svg>
