<svg width="58" height="55" viewBox="0 0 58 55" fill="none" xmlns="http://www.w3.org/2000/svg">
<g clip-path="url(#clip0_46_14)">
<path d="M27.9257 19.498C21.6635 20.0746 16.7647 25.3209 16.7647 31.7203C16.7647 38.5001 22.2759 43.9886 29.058 43.9886C29.058 43.9886 54.1643 48.1511 48.2257 17.7339C51.6456 23.453 54.7651 29.2066 54.7651 29.2066C54.7651 29.2066 62.3906 42.3398 53.9333 50.3649C53.9333 50.3649 49.0229 54.954 39.9416 54.954C37.446 54.954 34.4536 54.954 31.4034 54.954C15.5054 52.1637 14.1651 38.1196 14.1651 38.1196C13.0675 20.063 27.9257 19.4404 27.9257 19.4404V19.498Z" fill="url(#paint0_linear_46_14)"/>
<path d="M48.2255 17.7339C54.1642 48.151 29.0578 43.9886 29.0578 43.9886C35.8514 43.9886 41.351 38.5001 41.351 31.7202C41.351 30.5787 41.1893 29.4718 40.9004 28.4225V28.411C40.7733 27.7538 38.867 18.7024 29.6124 15.1856C25.3953 13.5829 20.7391 13.6982 16.5104 15.2548C13.5411 16.3502 10.0518 18.2527 7.47534 21.5274L13.8877 10.2622C15.355 7.69088 17.273 5.40786 19.6068 3.58606C23.6853 0.426732 30.1092 -2.22526 37.4228 3.25168C37.4228 3.25168 39.618 4.49696 44.1124 11.1731C45.4064 13.0986 46.8506 15.4162 48.2255 17.7339Z" fill="url(#paint1_linear_46_14)"/>
<path d="M14.165 38.1198C14.165 38.1198 15.4937 52.1638 31.4033 54.9542C26.1925 54.9542 20.8547 54.9542 17.7236 54.9542C14.2228 54.9542 10.7567 54.1471 7.6718 52.4867C3.55865 50.2613 -0.623817 46.1911 0.138733 38.9846C0.693314 33.7382 7.14033 22.1271 7.14033 22.1271L7.47539 21.5391C7.47539 21.5391 7.47539 21.5391 7.47539 21.5276C10.0403 18.2414 13.5296 16.3504 16.5104 15.255C20.7391 13.6984 25.3953 13.5831 29.6124 15.1858C38.867 18.7141 40.7734 27.7655 40.9005 28.4112C39.4563 23.2456 34.6961 19.4521 29.0579 19.4521C28.6766 19.4521 28.2953 19.4751 27.9256 19.4982V19.4521C27.9256 19.4406 13.0674 20.0632 14.165 38.1198Z" fill="url(#paint2_linear_46_14)"/>
</g>
<defs>
<linearGradient id="paint0_linear_46_14" x1="14.1096" y1="36.3467" x2="57.9257" y2="36.3467" gradientUnits="userSpaceOnUse">
<stop offset="0.00303046" stop-color="#3668E7"/>
<stop offset="1" stop-color="#44BAE1"/>
</linearGradient>
<linearGradient id="paint1_linear_46_14" x1="7.48024" y1="22.1363" x2="49.1371" y2="22.1363" gradientUnits="userSpaceOnUse">
<stop stop-color="#44BCE1"/>
<stop offset="0.3672" stop-color="#44BAE1"/>
<stop offset="0.545" stop-color="#43B2E2"/>
<stop offset="0.6819" stop-color="#41A5E2"/>
<stop offset="0.798" stop-color="#3F93E4"/>
<stop offset="0.8999" stop-color="#3C7BE5"/>
<stop offset="0.9921" stop-color="#385EE7"/>
<stop offset="1" stop-color="#385BE7"/>
</linearGradient>
<linearGradient id="paint2_linear_46_14" x1="0.0541589" y1="34.4947" x2="40.9029" y2="34.4947" gradientUnits="userSpaceOnUse">
<stop stop-color="#44BCE1"/>
<stop offset="0.1476" stop-color="#43B6E1"/>
<stop offset="0.3489" stop-color="#41A4E2"/>
<stop offset="0.5812" stop-color="#3E88E4"/>
<stop offset="0.8349" stop-color="#3960E7"/>
<stop offset="0.8636" stop-color="#385BE7"/>
</linearGradient>
<clipPath id="clip0_46_14">
<rect width="58" height="55" fill="white"/>
</clipPath>
</defs>
</svg>
