<svg width="57" height="67" viewBox="0 0 57 67" fill="none" xmlns="http://www.w3.org/2000/svg">
<g clip-path="url(#clip0_46_36)">
<path d="M48.175 5.21769C45.084 1.69454 39.4965 0.184082 32.3484 0.184082H11.6026C10.8953 0.184108 10.2113 0.436426 9.67346 0.895671C9.13562 1.35492 8.77924 1.99096 8.6684 2.68946L0.0302287 57.4748C-0.14147 58.5552 0.695062 59.5335 1.79003 59.5335H14.5978L17.8143 39.1313L17.7145 39.7702C17.9437 38.328 19.1771 37.2643 20.6376 37.2643H26.7238C38.6802 37.2643 48.0422 32.408 50.7769 18.3595C50.8581 17.944 50.9284 17.5396 50.9892 17.1445C50.6441 16.9617 50.6441 16.9617 50.9892 17.1445C51.8036 11.9521 50.9837 8.41763 48.175 5.21769Z" fill="#27346A"/>
<path d="M22.7151 15.274C23.0652 15.1073 23.4482 15.0209 23.836 15.0211H40.1003C42.0263 15.0211 43.8227 15.1465 45.4643 15.4107C45.9236 15.4839 46.3806 15.5714 46.8345 15.6729C47.4779 15.8149 48.1139 15.9886 48.7401 16.1935C49.5471 16.4631 50.2987 16.777 50.9894 17.1445C51.8036 11.9501 50.9837 8.41763 48.1751 5.21769C45.0823 1.69454 39.4965 0.184082 32.3484 0.184082H11.6008C10.14 0.184082 8.89733 1.24755 8.6684 2.68946L0.0302299 57.4728C-0.141469 58.5549 0.695063 59.5319 1.78826 59.5319H14.5978L21.2712 17.2129C21.3368 16.7969 21.5025 16.4031 21.754 16.0654C22.0055 15.7276 22.3354 15.4561 22.7151 15.274Z" fill="#27346A"/>
<path d="M50.7769 18.3595C48.0421 32.406 38.6803 37.2643 26.7238 37.2643H20.6358C19.1753 37.2643 17.9416 38.328 17.7147 39.7702L13.7131 65.1378C13.5635 66.0833 14.2947 66.94 15.2513 66.94H26.0479C26.6663 66.9398 27.2644 66.719 27.7346 66.3173C28.2048 65.9155 28.5163 65.3592 28.6129 64.7483L28.7181 64.1982L30.7529 51.3017L30.884 50.5889C30.9807 49.9781 31.2921 49.4218 31.7622 49.02C32.2324 48.6183 32.8304 48.3974 33.4489 48.3972H35.0647C45.5234 48.3972 53.7128 44.1482 56.106 31.8596C57.1049 26.7242 56.588 22.4366 53.9455 19.425C53.1441 18.5128 52.1487 17.7595 50.9892 17.1445C50.9264 17.5416 50.8583 17.944 50.7769 18.3595Z" fill="#2790C3"/>
<path d="M48.1271 16.0035C47.7007 15.879 47.2703 15.7687 46.8365 15.673C46.3823 15.5731 45.9254 15.4863 45.4663 15.4125C43.8229 15.1466 42.0279 15.021 40.1001 15.021H23.8378C23.4497 15.0201 23.0664 15.1073 22.7169 15.2759C22.3367 15.4574 22.0065 15.7288 21.7549 16.0666C21.5032 16.4044 21.3378 16.7985 21.2727 17.2147L17.8161 39.1313L17.7163 39.7702C17.9437 38.3281 19.1771 37.2644 20.6378 37.2644H26.7258C38.6822 37.2644 48.044 32.408 50.7787 18.3596C50.8601 17.9441 50.9285 17.5415 50.9912 17.1446C50.2987 16.779 49.5491 16.4631 48.7418 16.1954C48.5382 16.1279 48.3333 16.0639 48.1274 16.0035" fill="#1F264F"/>
</g>
<defs>
<clipPath id="clip0_46_36">
<rect width="56.7892" height="67" fill="white"/>
</clipPath>
</defs>
</svg>
