<svg width="49" height="66" viewBox="0 0 49 66" fill="none" xmlns="http://www.w3.org/2000/svg">
<path d="M20.6138 65.9577C14.4924 65.5124 8.44212 63.9573 4.73155 61.8755C2.61802 60.6898 1.0078 59.2325 0.37594 57.9338L0 57.161V32.9221V8.68314L0.297479 8.07355C1.62687 5.34965 5.86954 2.89403 11.7921 1.42064C13.8025 0.920456 16.7048 0.422351 19.0726 0.171175C21.4904 -0.0853748 27.8989 -0.0463426 30.3106 0.240002C36.7206 1.00003 42.1752 2.70156 45.5365 4.98977C46.8328 5.87218 48.163 7.28414 48.6136 8.25603L49 9.08931L48.9669 33.2549L48.9339 57.4206L48.6237 58.0565C48.4532 58.4062 47.9379 59.0943 47.4788 59.5854C44.6837 62.5757 38.6884 64.7877 30.8245 65.7302C29.2216 65.9223 22.2584 66.0777 20.6139 65.9581L20.6138 65.9577ZM31.8947 45.1882C31.8712 45.1262 30.9561 44.3035 29.8612 43.3598C28.7662 42.4161 27.8232 41.5996 27.7656 41.5454C27.7079 41.4912 27.9102 41.2993 28.2151 41.1189C28.52 40.9385 29.1041 40.4367 29.5132 40.0038C30.7095 38.7378 31.2739 37.174 31.2739 35.1256C31.2739 33.109 30.6652 31.482 29.4459 30.24C28.2171 28.988 26.8062 28.4501 24.7515 28.4501C21.5844 28.4501 19.152 30.3152 18.3757 33.3389C18.1086 34.379 18.11 36.4806 18.3785 37.4028C19.0786 39.8083 20.9854 41.5554 23.3585 41.9657C24.1616 42.1045 24.2704 42.1644 24.8179 42.7685C25.1432 43.1275 25.811 43.8441 26.3017 44.361L27.1939 45.3007H29.5657C30.8702 45.3007 31.9182 45.2501 31.8947 45.1882ZM23.7607 38.4859C23.1898 38.1855 22.9739 37.9523 22.6483 37.2842C22.3968 36.7683 22.3538 36.4748 22.351 35.2552C22.3482 34.0161 22.3872 33.7483 22.6498 33.2102C23.0794 32.3297 23.6715 31.9128 24.5873 31.846C25.8621 31.7526 26.5979 32.3841 26.9836 33.9015C27.4564 35.762 26.9364 37.7399 25.802 38.3963C25.2068 38.7407 24.319 38.7797 23.7607 38.4859ZM13.2477 41.9393C15.7344 41.4633 17.1461 40.0038 17.1461 37.9087C17.1461 36.05 16.2347 34.9669 13.7159 33.8321C12.274 33.1825 11.7518 32.7747 11.7518 32.2983C11.7518 31.9034 12.2474 31.4707 12.8244 31.362C13.3877 31.2558 14.8819 31.5178 15.7643 31.8775L16.5039 32.179V30.5268V28.8744L15.7012 28.6947C15.2051 28.5836 14.1626 28.517 12.9719 28.5204C11.2853 28.5204 10.9551 28.5619 10.3204 28.8162C8.46648 29.559 7.58673 30.8243 7.6008 32.7277C7.61397 34.5095 8.54536 35.6209 10.8634 36.6208C12.2311 37.2107 12.7793 37.66 12.7793 38.1908C12.7793 39.319 10.9168 39.4578 8.94484 38.4767C8.40481 38.208 7.91961 37.9662 7.86663 37.9395C7.81366 37.9127 7.77032 38.6845 7.77032 39.6547C7.77032 41.4106 7.77217 41.4191 8.08719 41.5401C9.27347 41.9953 11.8954 42.1981 13.2477 41.9393ZM41.6772 40.3104V38.8198H39.4296H37.1819V33.6997V28.5798H35.1912H33.2005V35.1904V41.801H37.4388H41.6772V40.3104ZM27.8062 14.1886C31.7622 13.9117 34.7275 13.3889 37.337 12.5084C39.9367 11.6311 41.4723 10.5697 41.8159 9.41261C41.9482 8.96674 41.9387 8.79761 41.7538 8.30874C40.9244 6.11708 36.2914 4.43321 29.2117 3.75049C26.1834 3.4584 20.6759 3.55309 17.7884 3.94673C13.3825 4.54751 9.80693 5.66345 8.21708 6.93394C5.00097 9.50416 8.40203 12.3311 16.3113 13.6616C19.7407 14.2385 24.1838 14.4422 27.8062 14.1886H27.8062Z" fill="#00BCF2"/>
</svg>
