<svg width="40" height="40" viewBox="0 0 40 40" fill="none" xmlns="http://www.w3.org/2000/svg">
<g id="arrow-top" clip-path="url(#clip0_78_42)">
<g id="Group">
<path id="Vector" d="M11.4463 18.9048C11.6079 19.0825 11.8029 19.2267 12.0203 19.329C12.2376 19.4314 12.473 19.4899 12.7129 19.5012C12.9529 19.5125 13.1927 19.4764 13.4187 19.395C13.6447 19.3136 13.8525 19.1884 14.0301 19.0266L17.6741 15.7116L17.6741 27.4238C17.6741 27.9087 17.8667 28.3737 18.2096 28.7165C18.5524 29.0593 19.0174 29.252 19.5022 29.252C19.9871 29.252 20.4521 29.0593 20.7949 28.7165C21.1378 28.3737 21.3304 27.9087 21.3304 27.4238L21.3304 15.7116L24.9744 19.0266C25.3332 19.3531 25.807 19.5237 26.2915 19.5008C26.7761 19.478 27.2317 19.2636 27.5582 18.9048C27.8846 18.546 28.0552 18.0722 28.0323 17.5877C28.0095 17.1031 27.7951 16.6475 27.4363 16.321L20.7332 10.2273C20.3965 9.92067 19.9576 9.75075 19.5022 9.75075C19.0469 9.75075 18.6079 9.92067 18.2713 10.2273L11.5682 16.321C11.3904 16.4826 11.2463 16.6776 11.1439 16.895C11.0416 17.1123 10.9831 17.3477 10.9718 17.5876C10.9604 17.8276 10.9965 18.0674 11.0779 18.2934C11.1594 18.5194 11.2845 18.7272 11.4463 18.9048Z" fill="white"/>
<path id="Vector_2" fill-rule="evenodd" clip-rule="evenodd" d="M19.5022 39.002C14.3305 39.002 9.37057 36.9475 5.71362 33.2905C2.05666 29.6336 0.00219727 24.6737 0.00219727 19.502C0.00219727 14.3302 2.05666 9.37033 5.71362 5.71337C9.37057 2.05641 14.3305 0.00195313 19.5022 0.00195313C24.6739 0.00195313 29.6338 2.05641 33.2908 5.71337C36.9477 9.37033 39.0022 14.3302 39.0022 19.502C39.0022 24.6737 36.9477 29.6336 33.2908 33.2905C29.6338 36.9475 24.6739 39.002 19.5022 39.002ZM3.65845 19.502C3.65845 23.704 5.32769 27.7339 8.29897 30.7052C11.2703 33.6765 15.3002 35.3457 19.5022 35.3457C23.7042 35.3457 27.7341 33.6765 30.7054 30.7052C33.6767 27.7339 35.3459 23.704 35.3459 19.502C35.3459 15.2999 33.6767 11.27 30.7054 8.29873C27.7341 5.32745 23.7042 3.6582 19.5022 3.6582C15.3002 3.6582 11.2703 5.32745 8.29897 8.29873C5.32769 11.27 3.65845 15.2999 3.65845 19.502Z" fill="white"/>
</g>
</g>
<defs>
<clipPath id="clip0_78_42">
<rect width="39" height="39" fill="white" transform="translate(0.00219727 39.002) rotate(-90)"/>
</clipPath>
</defs>
</svg>
