<svg width="55" height="58" viewBox="0 0 55 58" fill="none" xmlns="http://www.w3.org/2000/svg">
<g id="arrow-previous">
<path id="Arrow" d="M26.7346 28.3852C26.9124 28.2237 27.0565 28.0286 27.1589 27.8113C27.2612 27.594 27.3197 27.3586 27.331 27.1186C27.3423 26.8787 27.3063 26.6388 27.2248 26.4128C27.1434 26.1868 27.0182 25.9791 26.8565 25.8015L23.5415 22.1574L35.2537 22.1574C35.7385 22.1574 36.2035 21.9648 36.5463 21.622C36.8892 21.2791 37.0818 20.8142 37.0818 20.3293C37.0818 19.8445 36.8892 19.3795 36.5463 19.0366C36.2035 18.6938 35.7385 18.5012 35.2537 18.5012H23.5415L26.8565 14.8571C27.1829 14.4983 27.3535 14.0245 27.3306 13.54C27.3078 13.0555 27.0934 12.5998 26.7346 12.2734C26.3758 11.9469 25.902 11.7763 25.4175 11.7992C24.9329 11.8221 24.4773 12.0365 24.1509 12.3952L18.0571 19.0984C17.7505 19.435 17.5806 19.874 17.5806 20.3293C17.5806 20.7846 17.7505 21.2236 18.0571 21.5602L24.1509 28.2634C24.3124 28.4411 24.5075 28.5853 24.7248 28.6876C24.9421 28.79 25.1775 28.8485 25.4175 28.8598C25.6574 28.8711 25.8973 28.835 26.1233 28.7536C26.3493 28.6722 26.557 28.547 26.7346 28.3852Z" fill="white"/>
<path id="Circle" fill-rule="evenodd" clip-rule="evenodd" d="M46.8135 19.4814C47.0391 24.6482 45.2029 29.693 41.709 33.506C38.215 37.319 33.3494 39.5879 28.1826 39.8135C23.0158 40.0391 17.971 38.2029 14.158 34.7089C10.345 31.215 8.07619 26.3494 7.8506 21.1826C7.62501 16.0158 9.46117 10.971 12.9551 7.15802C16.4491 3.34502 21.3147 1.07617 26.4815 0.850585C31.6483 0.624998 36.6931 2.46115 40.5061 5.95512C44.319 9.44908 46.5879 14.3146 46.8135 19.4814ZM28.0231 36.1607C32.2212 35.9774 36.1744 34.134 39.0133 31.0359C41.8521 27.9379 43.344 23.839 43.1607 19.6409C42.9774 15.4429 41.134 11.4896 38.0359 8.65079C34.9379 5.81194 30.839 4.32007 26.6409 4.50336C22.4429 4.68665 18.4896 6.53009 15.6508 9.62814C12.812 12.7262 11.3201 16.8251 11.5034 21.0231C11.6867 25.2211 13.5301 29.1744 16.6282 32.0133C19.7262 34.8521 23.8251 36.344 28.0231 36.1607Z" fill="white"/>
<path id="previous" d="M2.796 47.252C2.996 46.94 3.272 46.688 3.624 46.496C3.976 46.304 4.388 46.208 4.86 46.208C5.412 46.208 5.912 46.348 6.36 46.628C6.808 46.908 7.16 47.308 7.416 47.828C7.68 48.348 7.812 48.952 7.812 49.64C7.812 50.328 7.68 50.936 7.416 51.464C7.16 51.984 6.808 52.388 6.36 52.676C5.912 52.956 5.412 53.096 4.86 53.096C4.396 53.096 3.984 53 3.624 52.808C3.272 52.616 2.996 52.368 2.796 52.064V56.192H0.744V46.304H2.796V47.252ZM5.724 49.64C5.724 49.128 5.58 48.728 5.292 48.44C5.012 48.144 4.664 47.996 4.248 47.996C3.84 47.996 3.492 48.144 3.204 48.44C2.924 48.736 2.784 49.14 2.784 49.652C2.784 50.164 2.924 50.568 3.204 50.864C3.492 51.16 3.84 51.308 4.248 51.308C4.656 51.308 5.004 51.16 5.292 50.864C5.58 50.56 5.724 50.152 5.724 49.64ZM10.9405 47.42C11.1805 47.052 11.4805 46.764 11.8405 46.556C12.2005 46.34 12.6005 46.232 13.0405 46.232V48.404H12.4765C11.9645 48.404 11.5805 48.516 11.3245 48.74C11.0685 48.956 10.9405 49.34 10.9405 49.892V53H8.88853V46.304H10.9405V47.42ZM20.3333 49.544C20.3333 49.736 20.3213 49.936 20.2973 50.144H15.6533C15.6853 50.56 15.8173 50.88 16.0493 51.104C16.2893 51.32 16.5813 51.428 16.9253 51.428C17.4373 51.428 17.7933 51.212 17.9933 50.78H20.1773C20.0653 51.22 19.8613 51.616 19.5653 51.968C19.2773 52.32 18.9133 52.596 18.4733 52.796C18.0333 52.996 17.5413 53.096 16.9973 53.096C16.3413 53.096 15.7573 52.956 15.2453 52.676C14.7333 52.396 14.3333 51.996 14.0453 51.476C13.7573 50.956 13.6133 50.348 13.6133 49.652C13.6133 48.956 13.7533 48.348 14.0333 47.828C14.3213 47.308 14.7213 46.908 15.2333 46.628C15.7453 46.348 16.3333 46.208 16.9973 46.208C17.6453 46.208 18.2213 46.344 18.7253 46.616C19.2293 46.888 19.6213 47.276 19.9013 47.78C20.1893 48.284 20.3333 48.872 20.3333 49.544ZM18.2333 49.004C18.2333 48.652 18.1133 48.372 17.8733 48.164C17.6333 47.956 17.3333 47.852 16.9733 47.852C16.6293 47.852 16.3373 47.952 16.0973 48.152C15.8653 48.352 15.7213 48.636 15.6653 49.004H18.2333ZM24.4279 51.08L25.8799 46.304H28.0639L25.6879 53H23.1559L20.7799 46.304H22.9759L24.4279 51.08ZM29.9596 45.608C29.5996 45.608 29.3036 45.504 29.0716 45.296C28.8476 45.08 28.7356 44.816 28.7356 44.504C28.7356 44.184 28.8476 43.92 29.0716 43.712C29.3036 43.496 29.5996 43.388 29.9596 43.388C30.3116 43.388 30.5996 43.496 30.8236 43.712C31.0556 43.92 31.1716 44.184 31.1716 44.504C31.1716 44.816 31.0556 45.08 30.8236 45.296C30.5996 45.504 30.3116 45.608 29.9596 45.608ZM30.9796 46.304V53H28.9276V46.304H30.9796ZM35.5147 53.096C34.8587 53.096 34.2667 52.956 33.7387 52.676C33.2187 52.396 32.8067 51.996 32.5027 51.476C32.2067 50.956 32.0587 50.348 32.0587 49.652C32.0587 48.964 32.2107 48.36 32.5147 47.84C32.8187 47.312 33.2347 46.908 33.7627 46.628C34.2907 46.348 34.8827 46.208 35.5387 46.208C36.1947 46.208 36.7867 46.348 37.3147 46.628C37.8427 46.908 38.2587 47.312 38.5627 47.84C38.8667 48.36 39.0187 48.964 39.0187 49.652C39.0187 50.34 38.8627 50.948 38.5507 51.476C38.2467 51.996 37.8267 52.396 37.2907 52.676C36.7627 52.956 36.1707 53.096 35.5147 53.096ZM35.5147 51.32C35.9067 51.32 36.2387 51.176 36.5107 50.888C36.7907 50.6 36.9307 50.188 36.9307 49.652C36.9307 49.116 36.7947 48.704 36.5227 48.416C36.2587 48.128 35.9307 47.984 35.5387 47.984C35.1387 47.984 34.8067 48.128 34.5427 48.416C34.2787 48.696 34.1467 49.108 34.1467 49.652C34.1467 50.188 34.2747 50.6 34.5307 50.888C34.7947 51.176 35.1227 51.32 35.5147 51.32ZM46.7193 46.304V53H44.6673V52.088C44.4593 52.384 44.1753 52.624 43.8153 52.808C43.4633 52.984 43.0713 53.072 42.6393 53.072C42.1273 53.072 41.6753 52.96 41.2833 52.736C40.8913 52.504 40.5873 52.172 40.3713 51.74C40.1553 51.308 40.0473 50.8 40.0473 50.216V46.304H42.0873V49.94C42.0873 50.388 42.2033 50.736 42.4353 50.984C42.6673 51.232 42.9793 51.356 43.3713 51.356C43.7713 51.356 44.0873 51.232 44.3193 50.984C44.5513 50.736 44.6673 50.388 44.6673 49.94V46.304H46.7193ZM50.9172 53.096C50.3332 53.096 49.8132 52.996 49.3572 52.796C48.9012 52.596 48.5412 52.324 48.2772 51.98C48.0132 51.628 47.8652 51.236 47.8332 50.804H49.8612C49.8852 51.036 49.9932 51.224 50.1852 51.368C50.3772 51.512 50.6132 51.584 50.8932 51.584C51.1492 51.584 51.3452 51.536 51.4812 51.44C51.6252 51.336 51.6972 51.204 51.6972 51.044C51.6972 50.852 51.5972 50.712 51.3972 50.624C51.1972 50.528 50.8732 50.424 50.4252 50.312C49.9452 50.2 49.5452 50.084 49.2252 49.964C48.9052 49.836 48.6292 49.64 48.3972 49.376C48.1652 49.104 48.0492 48.74 48.0492 48.284C48.0492 47.9 48.1532 47.552 48.3612 47.24C48.5772 46.92 48.8892 46.668 49.2972 46.484C49.7132 46.3 50.2052 46.208 50.7732 46.208C51.6132 46.208 52.2732 46.416 52.7532 46.832C53.2412 47.248 53.5212 47.8 53.5932 48.488H51.6972C51.6652 48.256 51.5612 48.072 51.3852 47.936C51.2172 47.8 50.9932 47.732 50.7132 47.732C50.4732 47.732 50.2892 47.78 50.1612 47.876C50.0332 47.964 49.9692 48.088 49.9692 48.248C49.9692 48.44 50.0692 48.584 50.2692 48.68C50.4772 48.776 50.7972 48.872 51.2292 48.968C51.7252 49.096 52.1292 49.224 52.4412 49.352C52.7532 49.472 53.0252 49.672 53.2572 49.952C53.4972 50.224 53.6212 50.592 53.6292 51.056C53.6292 51.448 53.5172 51.8 53.2932 52.112C53.0772 52.416 52.7612 52.656 52.3452 52.832C51.9372 53.008 51.4612 53.096 50.9172 53.096Z" fill="white"/>
</g>
</svg>
