<svg width="54" height="61" viewBox="0 0 54 61" fill="none" xmlns="http://www.w3.org/2000/svg">
<g id="arrow-back">
<path id="Arrow" d="M34.5576 21.0996C34.396 20.9219 34.201 20.7777 33.9837 20.6754C33.7663 20.573 33.5309 20.5145 33.291 20.5032C33.051 20.4919 32.8112 20.528 32.5852 20.6094C32.3592 20.6908 32.1515 20.816 31.9739 20.9778L28.3298 24.2928L28.3298 12.5806C28.3298 12.0957 28.1372 11.6307 27.7943 11.2879C27.4515 10.945 26.9865 10.7524 26.5017 10.7524C26.0168 10.7524 25.5518 10.945 25.209 11.2879C24.8662 11.6307 24.6735 12.0957 24.6735 12.5806V24.2928L21.0295 20.9778C20.6707 20.6513 20.1969 20.4807 19.7124 20.5036C19.2278 20.5264 18.7722 20.7408 18.4457 21.0996C18.1193 21.4584 17.9487 21.9322 17.9716 22.4167C17.9944 22.9013 18.2088 23.3569 18.5676 23.6834L25.2707 29.7771C25.6074 30.0837 26.0463 30.2536 26.5017 30.2536C26.957 30.2536 27.396 30.0837 27.7326 29.7771L34.4357 23.6834C34.6135 23.5218 34.7577 23.3268 34.86 23.1094C34.9623 22.8921 35.0208 22.6567 35.0321 22.4168C35.0435 22.1768 35.0074 21.937 34.926 21.711C34.8445 21.485 34.7194 21.2772 34.5576 21.0996Z" fill="white"/>
<path id="Circle" fill-rule="evenodd" clip-rule="evenodd" d="M45.9841 19.6548C46.2097 24.8216 44.3736 29.8664 40.8796 33.6794C37.3856 37.4924 32.5201 39.7612 27.3533 39.9868C22.1865 40.2124 17.1417 38.3762 13.3287 34.8823C9.51569 31.3883 7.24684 26.5227 7.02126 21.3559C6.79567 16.1891 8.63182 11.1444 12.1258 7.33136C15.6198 3.51836 20.4853 1.24951 25.6521 1.02393C30.8189 0.798338 35.8637 2.63449 39.6767 6.12846C43.4897 9.62242 45.7586 14.488 45.9841 19.6548ZM27.1938 36.334C31.3918 36.1507 35.3451 34.3073 38.1839 31.2093C41.0228 28.1112 42.5147 24.0123 42.3314 19.8143C42.1481 15.6162 40.3046 11.663 37.2066 8.82413C34.1085 5.98528 30.0096 4.49341 25.8116 4.6767C21.6136 4.85999 17.6603 6.70343 14.8215 9.80148C11.9826 12.8995 10.4907 16.9984 10.674 21.1965C10.8573 25.3945 12.7008 29.3478 15.7988 32.1866C18.8969 35.0255 22.9958 36.5173 27.1938 36.334Z" fill="white"/>
<path id="Go back." d="M6.33576 50.2395C6.18376 49.9595 5.96376 49.7475 5.67576 49.6035C5.39576 49.4515 5.06376 49.3755 4.67976 49.3755C4.01576 49.3755 3.48376 49.5955 3.08376 50.0355C2.68376 50.4675 2.48376 51.0475 2.48376 51.7755C2.48376 52.5515 2.69176 53.1595 3.10776 53.5995C3.53176 54.0315 4.11176 54.2475 4.84776 54.2475C5.35176 54.2475 5.77576 54.1195 6.11976 53.8635C6.47176 53.6075 6.72776 53.2395 6.88776 52.7595H4.28376V51.2475H8.74776V53.1555C8.59576 53.6675 8.33576 54.1435 7.96776 54.5835C7.60776 55.0235 7.14776 55.3795 6.58776 55.6515C6.02776 55.9235 5.39576 56.0595 4.69176 56.0595C3.85976 56.0595 3.11576 55.8795 2.45976 55.5195C1.81176 55.1515 1.30376 54.6435 0.935756 53.9955C0.575756 53.3475 0.395756 52.6075 0.395756 51.7755C0.395756 50.9435 0.575756 50.2035 0.935756 49.5555C1.30376 48.8995 1.81176 48.3915 2.45976 48.0315C3.10776 47.6635 3.84776 47.4795 4.67976 47.4795C5.68776 47.4795 6.53576 47.7235 7.22376 48.2115C7.91976 48.6995 8.37976 49.3755 8.60376 50.2395H6.33576ZM12.9324 56.0955C12.2764 56.0955 11.6844 55.9555 11.1564 55.6755C10.6364 55.3955 10.2244 54.9955 9.92038 54.4755C9.62438 53.9555 9.47638 53.3475 9.47638 52.6515C9.47638 51.9635 9.62838 51.3595 9.93238 50.8395C10.2364 50.3115 10.6524 49.9075 11.1804 49.6275C11.7084 49.3475 12.3004 49.2075 12.9564 49.2075C13.6124 49.2075 14.2044 49.3475 14.7324 49.6275C15.2604 49.9075 15.6764 50.3115 15.9804 50.8395C16.2844 51.3595 16.4364 51.9635 16.4364 52.6515C16.4364 53.3395 16.2804 53.9475 15.9684 54.4755C15.6644 54.9955 15.2444 55.3955 14.7084 55.6755C14.1804 55.9555 13.5884 56.0955 12.9324 56.0955ZM12.9324 54.3195C13.3244 54.3195 13.6564 54.1755 13.9284 53.8875C14.2084 53.5995 14.3484 53.1875 14.3484 52.6515C14.3484 52.1155 14.2124 51.7035 13.9404 51.4155C13.6764 51.1275 13.3484 50.9835 12.9564 50.9835C12.5564 50.9835 12.2244 51.1275 11.9604 51.4155C11.6964 51.6955 11.5644 52.1075 11.5644 52.6515C11.5644 53.1875 11.6924 53.5995 11.9484 53.8875C12.2124 54.1755 12.5404 54.3195 12.9324 54.3195ZM22.12 50.2515C22.312 49.9395 22.588 49.6875 22.948 49.4955C23.308 49.3035 23.72 49.2075 24.184 49.2075C24.736 49.2075 25.236 49.3475 25.684 49.6275C26.132 49.9075 26.484 50.3075 26.74 50.8275C27.004 51.3475 27.136 51.9515 27.136 52.6395C27.136 53.3275 27.004 53.9355 26.74 54.4635C26.484 54.9835 26.132 55.3875 25.684 55.6755C25.236 55.9555 24.736 56.0955 24.184 56.0955C23.712 56.0955 23.3 56.0035 22.948 55.8195C22.596 55.6275 22.32 55.3755 22.12 55.0635V55.9995H20.068V47.1195H22.12V50.2515ZM25.048 52.6395C25.048 52.1275 24.904 51.7275 24.616 51.4395C24.336 51.1435 23.988 50.9955 23.572 50.9955C23.164 50.9955 22.816 51.1435 22.528 51.4395C22.248 51.7355 22.108 52.1395 22.108 52.6515C22.108 53.1635 22.248 53.5675 22.528 53.8635C22.816 54.1595 23.164 54.3075 23.572 54.3075C23.98 54.3075 24.328 54.1595 24.616 53.8635C24.904 53.5595 25.048 53.1515 25.048 52.6395ZM27.8045 52.6395C27.8045 51.9515 27.9325 51.3475 28.1885 50.8275C28.4525 50.3075 28.8085 49.9075 29.2565 49.6275C29.7045 49.3475 30.2045 49.2075 30.7565 49.2075C31.2285 49.2075 31.6405 49.3035 31.9925 49.4955C32.3525 49.6875 32.6285 49.9395 32.8205 50.2515V49.3035H34.8725V55.9995H32.8205V55.0515C32.6205 55.3635 32.3405 55.6155 31.9805 55.8075C31.6285 55.9995 31.2165 56.0955 30.7445 56.0955C30.2005 56.0955 29.7045 55.9555 29.2565 55.6755C28.8085 55.3875 28.4525 54.9835 28.1885 54.4635C27.9325 53.9355 27.8045 53.3275 27.8045 52.6395ZM32.8205 52.6515C32.8205 52.1395 32.6765 51.7355 32.3885 51.4395C32.1085 51.1435 31.7645 50.9955 31.3565 50.9955C30.9485 50.9955 30.6005 51.1435 30.3125 51.4395C30.0325 51.7275 29.8925 52.1275 29.8925 52.6395C29.8925 53.1515 30.0325 53.5595 30.3125 53.8635C30.6005 54.1595 30.9485 54.3075 31.3565 54.3075C31.7645 54.3075 32.1085 54.1595 32.3885 53.8635C32.6765 53.5675 32.8205 53.1635 32.8205 52.6515ZM35.949 52.6515C35.949 51.9555 36.089 51.3475 36.369 50.8275C36.657 50.3075 37.053 49.9075 37.557 49.6275C38.069 49.3475 38.653 49.2075 39.309 49.2075C40.149 49.2075 40.849 49.4275 41.409 49.8675C41.977 50.3075 42.349 50.9275 42.525 51.7275H40.341C40.157 51.2155 39.801 50.9595 39.273 50.9595C38.897 50.9595 38.597 51.1075 38.373 51.4035C38.149 51.6915 38.037 52.1075 38.037 52.6515C38.037 53.1955 38.149 53.6155 38.373 53.9115C38.597 54.1995 38.897 54.3435 39.273 54.3435C39.801 54.3435 40.157 54.0875 40.341 53.5755H42.525C42.349 54.3595 41.977 54.9755 41.409 55.4235C40.841 55.8715 40.141 56.0955 39.309 56.0955C38.653 56.0955 38.069 55.9555 37.557 55.6755C37.053 55.3955 36.657 54.9955 36.369 54.4755C36.089 53.9555 35.949 53.3475 35.949 52.6515ZM47.7147 55.9995L45.6747 53.1915V55.9995H43.6227V47.1195H45.6747V52.0275L47.7027 49.3035H50.2347L47.4507 52.6635L50.2587 55.9995H47.7147ZM52.0006 56.0955C51.6406 56.0955 51.3446 55.9915 51.1126 55.7835C50.8886 55.5675 50.7766 55.3035 50.7766 54.9915C50.7766 54.6715 50.8886 54.4035 51.1126 54.1875C51.3446 53.9715 51.6406 53.8635 52.0006 53.8635C52.3526 53.8635 52.6406 53.9715 52.8646 54.1875C53.0966 54.4035 53.2126 54.6715 53.2126 54.9915C53.2126 55.3035 53.0966 55.5675 52.8646 55.7835C52.6406 55.9915 52.3526 56.0955 52.0006 56.0955Z" fill="white"/>
</g>
</svg>
