<svg width="51" height="51" viewBox="0 0 51 51" fill="none" xmlns="http://www.w3.org/2000/svg">
<g id="certificate">
<path id="Vector" d="M40.47 2.37451H6.33227C5.28264 2.37451 4.276 2.79148 3.5338 3.53368C2.7916 4.27588 2.37463 5.28252 2.37463 6.33215V10.2898H10.2899V46.7H45.1171V7.02157C45.1172 6.41128 44.9971 5.80695 44.7636 5.24309C44.5301 4.67924 44.1878 4.16691 43.7562 3.73537C43.3247 3.30383 42.8124 2.96154 42.2485 2.72804C41.6847 2.49454 41.0803 2.37441 40.47 2.37451Z" fill="#D9DAE2"/>
<path id="Vector_2" d="M40.47 2.37451H6.33227C5.28264 2.37451 4.276 2.79148 3.5338 3.53368C2.7916 4.27588 2.37463 5.28252 2.37463 6.33215V10.2898H10.2899V46.7C19.5266 46.7 28.3851 43.0307 34.9164 36.4994C41.4478 29.968 45.1171 21.1096 45.1171 11.8728V7.02157C45.1172 6.41128 44.9971 5.80695 44.7636 5.24309C44.5301 4.67924 44.1878 4.16691 43.7562 3.73537C43.3247 3.30383 42.8124 2.96154 42.2485 2.72804C41.6847 2.49454 41.0803 2.37441 40.47 2.37451Z" fill="#E5E6EB"/>
<path id="Ribbon" d="M38.7848 34.8271L29.2865 44.3255H32.4526V48.2831L38.7848 41.9509L45.117 48.2831V43.5339H48.2831L38.7848 34.8271Z" fill="#0468AD"/>
<path id="Vector_3" d="M39.5764 15.0391H15.8306V16.6221H39.5764V15.0391Z" fill="#444444"/>
<path id="Vector_4" d="M39.5764 19.7881H15.8306V21.3711H39.5764V19.7881Z" fill="#444444"/>
<path id="Vector_5" d="M39.5764 24.5371H15.8306V26.1202H39.5764V24.5371Z" fill="#444444"/>
<path id="Vector_6" d="M39.5764 29.2866H15.8306V30.8697H39.5764V29.2866Z" fill="#444444"/>
<path id="Vector_7" d="M27.7034 11.8727C29.0149 11.8727 30.078 10.8096 30.078 9.49812C30.078 8.18667 29.0149 7.12354 27.7034 7.12354C26.392 7.12354 25.3289 8.18667 25.3289 9.49812C25.3289 10.8096 26.392 11.8727 27.7034 11.8727Z" fill="white"/>
<path id="Vector_8" d="M6.33227 2.37451C7.3819 2.37451 8.38854 2.79148 9.13074 3.53368C9.87294 4.27588 10.2899 5.28252 10.2899 6.33215V10.2898H2.37463V6.33215C2.37463 5.28252 2.7916 4.27588 3.5338 3.53368C4.276 2.79148 5.28264 2.37451 6.33227 2.37451Z" fill="#CFCFD9"/>
<path id="Vector_9" d="M38.7848 43.534C41.4077 43.534 43.534 41.4077 43.534 38.7848C43.534 36.1619 41.4077 34.0356 38.7848 34.0356C36.1619 34.0356 34.0356 36.1619 34.0356 38.7848C34.0356 41.4077 36.1619 43.534 38.7848 43.534Z" fill="#027DE5"/>
<path id="Vector_10" d="M38.7848 41.9509C40.5334 41.9509 41.9509 40.5334 41.9509 38.7848C41.9509 37.0362 40.5334 35.6187 38.7848 35.6187C37.0362 35.6187 35.6187 37.0362 35.6187 38.7848C35.6187 40.5334 37.0362 41.9509 38.7848 41.9509Z" fill="#CCEAFF"/>
<path id="Vector_11" d="M34.8272 45.9087L33.2441 47.4917H44.3255L42.7425 45.9087H34.8272Z" fill="black"/>
<path id="Vector_12" d="M40.4699 1.58301H6.33217C5.073 1.58427 3.86576 2.08503 2.97539 2.97539C2.08503 3.86576 1.58427 5.073 1.58301 6.33217V10.2898C1.58301 10.4997 1.6664 10.7011 1.81484 10.8495C1.96328 10.9979 2.16461 11.0813 2.37453 11.0813H9.49828V46.7C9.49828 46.91 9.58167 47.1113 9.73011 47.2597C9.87855 47.4082 10.0799 47.4916 10.2898 47.4916H32.4526V45.9085H11.0813V6.33217C11.081 5.16228 10.6467 4.03412 9.86238 3.16606H40.4699C41.4921 3.16732 42.472 3.57393 43.1948 4.29671C43.9176 5.01949 44.3242 5.99943 44.3255 7.02159V39.9064L45.9085 41.3572V7.02159C45.907 5.57964 45.3336 4.19717 44.314 3.17755C43.2944 2.15794 41.9119 1.58447 40.4699 1.58301ZM9.49828 9.49828H3.16606V6.33217C3.16606 5.49247 3.49963 4.68715 4.09339 4.09339C4.68715 3.49963 5.49247 3.16606 6.33217 3.16606C7.17187 3.16606 7.97718 3.49963 8.57095 4.09339C9.16471 4.68715 9.49828 5.49247 9.49828 6.33217V9.49828Z" fill="black"/>
<path id="Vector_13" d="M39.5764 15.0391H15.8306V16.6221H39.5764V15.0391Z" fill="black"/>
<path id="Vector_14" d="M39.5764 19.7881H15.8306V21.3711H39.5764V19.7881Z" fill="black"/>
<path id="Vector_15" d="M39.5764 24.5371H15.8306V26.1202H39.5764V24.5371Z" fill="black"/>
<path id="Vector_16" d="M39.5764 29.2866H15.8306V30.8697H39.5764V29.2866Z" fill="black"/>
<path id="Vector_17" d="M30.8696 9.49814C30.8696 8.87194 30.6839 8.25981 30.336 7.73915C29.9881 7.21848 29.4936 6.81267 28.9151 6.57304C28.3366 6.3334 27.7 6.2707 27.0858 6.39287C26.4716 6.51503 25.9075 6.81658 25.4647 7.25936C25.0219 7.70215 24.7204 8.2663 24.5982 8.88046C24.476 9.49463 24.5387 10.1312 24.7784 10.7098C25.018 11.2883 25.4238 11.7828 25.9445 12.1307C26.4651 12.4786 27.0773 12.6642 27.7035 12.6642C28.5432 12.6642 29.3485 12.3307 29.9422 11.7369C30.536 11.1432 30.8696 10.3378 30.8696 9.49814ZM26.1204 9.49814C26.1204 9.18504 26.2133 8.87897 26.3872 8.61864C26.5611 8.35831 26.8084 8.15541 27.0977 8.03559C27.3869 7.91577 27.7052 7.88442 28.0123 7.9455C28.3194 8.00659 28.6015 8.15736 28.8229 8.37875C29.0442 8.60015 29.195 8.88222 29.2561 9.1893C29.3172 9.49638 29.2858 9.81468 29.166 10.1039C29.0462 10.3932 28.8433 10.6405 28.583 10.8144C28.3226 10.9883 28.0166 11.0812 27.7035 11.0812C27.2836 11.0812 26.881 10.9144 26.5841 10.6175C26.2872 10.3206 26.1204 9.91799 26.1204 9.49814Z" fill="black"/>
</g>
</svg>
