<svg width="52" height="52" viewBox="0 0 52 52" fill="none" xmlns="http://www.w3.org/2000/svg">
<g id="day">
<path id="Vector" fill-rule="evenodd" clip-rule="evenodd" d="M13 39H39C46.1738 39 52 33.1738 52 26C52 18.8262 46.1738 13 39 13H12.9155C5.78067 13.0455 0 18.8522 0 26C0 33.1738 5.824 39 13 39Z" fill="white"/>
<path id="day_2" d="M9.196 26.04C9.196 25.6387 9.27067 25.2863 9.42 24.983C9.574 24.6797 9.78167 24.4463 10.043 24.283C10.3043 24.1197 10.596 24.038 10.918 24.038C11.1747 24.038 11.408 24.0917 11.618 24.199C11.8327 24.3063 12.0007 24.451 12.122 24.633V22.82H13.319V28H12.122V27.44C12.01 27.6267 11.849 27.776 11.639 27.888C11.4337 28 11.1933 28.056 10.918 28.056C10.596 28.056 10.3043 27.9743 10.043 27.811C9.78167 27.643 9.574 27.4073 9.42 27.104C9.27067 26.796 9.196 26.4413 9.196 26.04ZM12.122 26.047C12.122 25.7483 12.038 25.5127 11.87 25.34C11.7067 25.1673 11.506 25.081 11.268 25.081C11.03 25.081 10.827 25.1673 10.659 25.34C10.4957 25.508 10.414 25.7413 10.414 26.04C10.414 26.3387 10.4957 26.5767 10.659 26.754C10.827 26.9267 11.03 27.013 11.268 27.013C11.506 27.013 11.7067 26.9267 11.87 26.754C12.038 26.5813 12.122 26.3457 12.122 26.047ZM13.947 26.04C13.947 25.6387 14.0216 25.2863 14.171 24.983C14.325 24.6797 14.5326 24.4463 14.794 24.283C15.0553 24.1197 15.347 24.038 15.669 24.038C15.9443 24.038 16.1846 24.094 16.39 24.206C16.6 24.318 16.761 24.465 16.873 24.647V24.094H18.07V28H16.873V27.447C16.7563 27.629 16.593 27.776 16.383 27.888C16.1776 28 15.9373 28.056 15.662 28.056C15.3446 28.056 15.0553 27.9743 14.794 27.811C14.5326 27.643 14.325 27.4073 14.171 27.104C14.0216 26.796 13.947 26.4413 13.947 26.04ZM16.873 26.047C16.873 25.7483 16.789 25.5127 16.621 25.34C16.4576 25.1673 16.257 25.081 16.019 25.081C15.781 25.081 15.578 25.1673 15.41 25.34C15.2466 25.508 15.165 25.7413 15.165 26.04C15.165 26.3387 15.2466 26.5767 15.41 26.754C15.578 26.9267 15.781 27.013 16.019 27.013C16.257 27.013 16.4576 26.9267 16.621 26.754C16.789 26.5813 16.873 26.3457 16.873 26.047ZM22.926 24.094L20.476 29.855H19.188L20.084 27.867L18.495 24.094H19.832L20.735 26.537L21.631 24.094H22.926Z" fill="black"/>
<g id="&#233;&#161;&#181;&#233;&#157;&#162;-1">
<g id="Weather">
<g id="sun_line">
<path id="&#229;&#189;&#162;&#231;&#138;&#182;" d="M37.9997 30.6673C38.3679 30.6673 38.6663 30.9658 38.6663 31.334V32.0007C38.6663 32.3689 38.3679 32.6673 37.9997 32.6673C37.6315 32.6673 37.333 32.3689 37.333 32.0007V31.334C37.333 30.9658 37.6315 30.6673 37.9997 30.6673ZM42.2423 29.3005L42.7137 29.7719C42.9741 30.0323 42.9741 30.4543 42.7137 30.7147C42.4534 30.9751 42.0313 30.9751 41.7709 30.7147L41.2995 30.2433C41.0392 29.9829 41.0392 29.5609 41.2995 29.3005C41.5599 29.0401 41.982 29.0401 42.2423 29.3005ZM33.757 29.3005C34.0173 29.0401 34.4395 29.0401 34.6998 29.3005C34.9401 29.5408 34.9586 29.919 34.7553 30.1805L34.6998 30.2433L34.2284 30.7147C33.9681 30.9751 33.5459 30.9751 33.2856 30.7147C33.0453 30.4744 33.0268 30.0962 33.2301 29.8347L33.2856 29.7719L33.757 29.3005ZM37.9997 22.0007C40.2088 22.0007 41.9997 23.7915 41.9997 26.0007C41.9997 28.2098 40.2088 30.0007 37.9997 30.0007C35.7905 30.0007 33.9997 28.2098 33.9997 26.0007C33.9997 23.7915 35.7905 22.0007 37.9997 22.0007ZM37.9997 23.334C36.5269 23.334 35.333 24.5279 35.333 26.0007C35.333 27.4734 36.5269 28.6673 37.9997 28.6673C39.4724 28.6673 40.6663 27.4734 40.6663 26.0007C40.6663 24.5279 39.4724 23.334 37.9997 23.334ZM32.6663 25.334C33.0345 25.334 33.333 25.6325 33.333 26.0007C33.333 26.3426 33.0756 26.6243 32.7441 26.6628L32.6663 26.6673H31.9997C31.6315 26.6673 31.333 26.3689 31.333 26.0007C31.333 25.6588 31.5904 25.377 31.9219 25.3385L31.9997 25.334H32.6663ZM43.9997 25.334C44.3679 25.334 44.6663 25.6325 44.6663 26.0007C44.6663 26.3689 44.3679 26.6673 43.9997 26.6673H43.333C42.9648 26.6673 42.6663 26.3689 42.6663 26.0007C42.6663 25.6325 42.9648 25.334 43.333 25.334H43.9997ZM33.2856 21.2866C33.5259 21.0463 33.9041 21.0278 34.1656 21.2311L34.2284 21.2866L34.6998 21.758C34.9602 22.0183 34.9602 22.4404 34.6998 22.7008C34.4595 22.9411 34.0813 22.9596 33.8198 22.7562L33.757 22.7008L33.2856 22.2294C33.0253 21.969 33.0253 21.5469 33.2856 21.2866ZM42.7137 21.2866C42.9741 21.5469 42.9741 21.969 42.7137 22.2294L42.2423 22.7008C41.9819 22.9611 41.5599 22.9611 41.2995 22.7008C41.0391 22.4404 41.0391 22.0183 41.2995 21.758L41.7709 21.2866C42.0313 21.0262 42.4533 21.0262 42.7137 21.2866ZM37.9997 19.334C38.3679 19.334 38.6663 19.6325 38.6663 20.0007V20.6673C38.6663 21.0355 38.3679 21.334 37.9997 21.334C37.6315 21.334 37.333 21.0355 37.333 20.6673V20.0007C37.333 19.6325 37.6315 19.334 37.9997 19.334Z" fill="#DBB222"/>
</g>
</g>
</g>
</g>
</svg>
