<svg width="70" height="70" viewBox="0 0 70 70" fill="none" xmlns="http://www.w3.org/2000/svg">
<g id="logo">
<circle id="Ellipse" cx="35" cy="35" r="35" fill="#341A1A"/>
<path id="F" d="M34.0156 21.664V25.28H24.7036V31.008H31.8396V34.56H24.7036V44H20.2236V21.664H34.0156Z" fill="white"/>
<path id="F." d="M51.3594 28.664V32.28H42.0474V38.008H49.1834V41.56H42.0474V51H37.5674V28.664H51.3594ZM56.5201 51.224C55.7095 51.224 55.0375 50.9787 54.5041 50.488C53.9921 49.976 53.7361 49.3467 53.7361 48.6C53.7361 47.8533 53.9921 47.2347 54.5041 46.744C55.0375 46.232 55.7095 45.976 56.5201 45.976C57.3095 45.976 57.9601 46.232 58.4721 46.744C58.9841 47.2347 59.2401 47.8533 59.2401 48.6C59.2401 49.3467 58.9841 49.976 58.4721 50.488C57.9601 50.9787 57.3095 51.224 56.5201 51.224Z" fill="white"/>
</g>
</svg>
