<svg width="43" height="55" viewBox="0 0 43 55" fill="none" xmlns="http://www.w3.org/2000/svg">
<g id="Logo">
<path id="F" d="M16.0156 12.664V16.28H6.70363V22.008H13.8396V25.56H6.70363V35H2.22363V12.664H16.0156Z" fill="white"/>
<path id="F." d="M33.3594 19.664V23.28H24.0474V29.008H31.1834V32.56H24.0474V42H19.5674V19.664H33.3594ZM38.5201 42.224C37.7095 42.224 37.0375 41.9787 36.5041 41.488C35.9921 40.976 35.7361 40.3467 35.7361 39.6C35.7361 38.8533 35.9921 38.2347 36.5041 37.744C37.0375 37.232 37.7095 36.976 38.5201 36.976C39.3095 36.976 39.9601 37.232 40.4721 37.744C40.9841 38.2347 41.2401 38.8533 41.2401 39.6C41.2401 40.3467 40.9841 40.976 40.4721 41.488C39.9601 41.9787 39.3095 42.224 38.5201 42.224Z" fill="white"/>
</g>
</svg>
