<svg width="52" height="52" viewBox="0 0 52 52" fill="none" xmlns="http://www.w3.org/2000/svg">
<g id="night">
<path id="Vector" fill-rule="evenodd" clip-rule="evenodd" d="M13 39H39C46.1738 39 52 33.1738 52 26C52 18.8262 46.1738 13 39 13H12.9155C5.78067 13.0455 0 18.8522 0 26C0 33.1738 5.824 39 13 39Z" fill="white"/>
<path id="night_2" d="M10.814 24.052C11.2713 24.052 11.6353 24.2013 11.906 24.5C12.1813 24.794 12.319 25.2 12.319 25.718V28H11.129V25.879C11.129 25.6177 11.0613 25.4147 10.926 25.27C10.7907 25.1253 10.6087 25.053 10.38 25.053C10.1513 25.053 9.96933 25.1253 9.834 25.27C9.69867 25.4147 9.631 25.6177 9.631 25.879V28H8.434V24.094H9.631V24.612C9.75233 24.4393 9.91567 24.304 10.121 24.206C10.3263 24.1033 10.5573 24.052 10.814 24.052ZM13.7528 23.688C13.5428 23.688 13.3701 23.6273 13.2348 23.506C13.1041 23.38 13.0388 23.226 13.0388 23.044C13.0388 22.8573 13.1041 22.7033 13.2348 22.582C13.3701 22.456 13.5428 22.393 13.7528 22.393C13.9581 22.393 14.1261 22.456 14.2568 22.582C14.3921 22.7033 14.4598 22.8573 14.4598 23.044C14.4598 23.226 14.3921 23.38 14.2568 23.506C14.1261 23.6273 13.9581 23.688 13.7528 23.688ZM14.3478 24.094V28H13.1508V24.094H14.3478ZM16.6993 24.038C16.9746 24.038 17.2149 24.094 17.4203 24.206C17.6303 24.318 17.7913 24.465 17.9033 24.647V24.094H19.1003V27.993C19.1003 28.3523 19.0279 28.6767 18.8833 28.966C18.7433 29.26 18.5263 29.4933 18.2323 29.666C17.9429 29.8387 17.5813 29.925 17.1473 29.925C16.5686 29.925 16.0996 29.7873 15.7403 29.512C15.3809 29.2413 15.1756 28.8727 15.1243 28.406H16.3073C16.3446 28.5553 16.4333 28.672 16.5733 28.756C16.7133 28.8447 16.8859 28.889 17.0913 28.889C17.3386 28.889 17.5346 28.8167 17.6793 28.672C17.8286 28.532 17.9033 28.3057 17.9033 27.993V27.44C17.7866 27.622 17.6256 27.7713 17.4203 27.888C17.2149 28 16.9746 28.056 16.6993 28.056C16.3773 28.056 16.0856 27.9743 15.8243 27.811C15.5629 27.643 15.3553 27.4073 15.2013 27.104C15.0519 26.796 14.9773 26.4413 14.9773 26.04C14.9773 25.6387 15.0519 25.2863 15.2013 24.983C15.3553 24.6797 15.5629 24.4463 15.8243 24.283C16.0856 24.1197 16.3773 24.038 16.6993 24.038ZM17.9033 26.047C17.9033 25.7483 17.8193 25.5127 17.6513 25.34C17.4879 25.1673 17.2873 25.081 17.0493 25.081C16.8113 25.081 16.6083 25.1673 16.4403 25.34C16.2769 25.508 16.1953 25.7413 16.1953 26.04C16.1953 26.3387 16.2769 26.5767 16.4403 26.754C16.6083 26.9267 16.8113 27.013 17.0493 27.013C17.2873 27.013 17.4879 26.9267 17.6513 26.754C17.8193 26.5813 17.9033 26.3457 17.9033 26.047ZM22.3672 24.052C22.8152 24.052 23.1746 24.2013 23.4452 24.5C23.7159 24.794 23.8512 25.2 23.8512 25.718V28H22.6612V25.879C22.6612 25.6177 22.5936 25.4147 22.4582 25.27C22.3229 25.1253 22.1409 25.053 21.9122 25.053C21.6836 25.053 21.5016 25.1253 21.3662 25.27C21.2309 25.4147 21.1632 25.6177 21.1632 25.879V28H19.9662V22.82H21.1632V24.619C21.2846 24.4463 21.4502 24.3087 21.6602 24.206C21.8702 24.1033 22.1059 24.052 22.3672 24.052ZM26.86 26.985V28H26.251C25.817 28 25.4787 27.895 25.236 27.685C24.9934 27.4703 24.872 27.1227 24.872 26.642V25.088H24.396V24.094H24.872V23.142H26.069V24.094H26.853V25.088H26.069V26.656C26.069 26.7727 26.097 26.8567 26.153 26.908C26.209 26.9593 26.3024 26.985 26.433 26.985H26.86Z" fill="black"/>
<path id="Vector_2" d="M42.4138 27.1049C39.1217 27.1049 37.0162 25.0544 37.0162 21.7762C37.0162 21.0988 37.1806 20.131 37.3935 19.629C37.4544 19.4899 37.4605 19.4052 37.4605 19.3447C37.4605 19.1814 37.3387 19 37.1075 19C37.0345 19 36.8945 19.0181 36.7607 19.0665C34.5091 19.9617 33 22.369 33 24.9032C33 28.4597 35.7262 31 39.2921 31C41.9088 31 44.1846 29.4214 44.9392 27.4496C44.9879 27.3105 45 27.1653 45 27.1109C45 26.8871 44.8174 26.7359 44.6471 26.7359C44.5679 26.7359 44.501 26.754 44.3855 26.7903C43.9169 26.9415 43.1623 27.1049 42.4138 27.1049Z" fill="#2B2C4D"/>
</g>
</svg>
