<svg width="93" height="125" viewBox="0 0 93 125" fill="none" xmlns="http://www.w3.org/2000/svg">
<g id="Group 23">
<g id="Profile">
<g id="Group 24">
<path id="Vector" d="M21.5837 68.8315L0 94.8428L13.619 94.8195L15.8716 108.504L37.5667 82.3583L21.5837 68.8315Z" fill="#333333"/>
<path id="Vector_2" d="M37.5667 82.3586L15.8716 108.504L13.619 94.8198L29.5752 75.5942L37.5667 82.3586Z" fill="#666666"/>
<path id="Vector_3" d="M66.7441 60.9062V123.897L47.3918 107.465L28.0396 124.223V60.9062H66.7441Z" fill="black"/>
<path id="Vector_4" d="M28.0396 60.9062V124.223L47.3918 107.465V60.9062H28.0396Z" fill="#333333"/>
<path id="Vector_5" d="M93 46.1957L81.0242 36.446L88.7121 22.9581L72.4638 21.5237L71.0492 5.73952L57.3668 12.3389L47.9684 0L39.1273 12.6281L24.8721 5.16499L24.0168 21.5237L8.05299 22.3855L14.0399 37.8824L1.78162 45.3436L14.334 54.8137L8.0626 68.3016L23.7401 70.0233L24.5953 86.0947L39.1273 79.2081L48.8198 92.1215L57.3706 79.2081L70.7686 85.8075L71.9084 69.736L87.5858 69.4488L81.8853 56.25L93 46.1957Z" fill="#E21B1B"/>
<path id="Vector_6" d="M47.3918 77.0825C64.4178 77.0825 78.2201 63.1436 78.2201 45.949C78.2201 28.7544 64.4178 14.8154 47.3918 14.8154C30.3658 14.8154 16.5635 28.7544 16.5635 45.949C16.5635 63.1436 30.3658 77.0825 47.3918 77.0825Z" fill="white"/>
<path id="Vector_7" d="M47.3918 20.5743C61.2665 20.5743 72.5158 31.9349 72.5158 45.947C72.5158 59.959 61.2665 71.3197 47.3918 71.3197C33.5172 71.3197 22.2698 59.961 22.2679 45.9489C22.2814 31.9427 33.521 20.5898 47.3918 20.5743ZM47.3918 18.6333C32.4543 18.6333 20.3459 30.8616 20.3459 45.947C20.3459 61.0324 32.4543 73.2606 47.3918 73.2606C62.3274 73.2606 74.4358 61.0324 74.4377 45.9489C74.4377 30.8635 62.3294 18.6352 47.3918 18.6333Z" fill="#CCCCCC"/>
<path id="Vector_8" d="M51.5855 40.0875L47.3917 27.0537L43.1961 40.0875H29.6232L40.6053 48.1426L36.4096 61.1822L47.3917 53.1213L58.3738 61.1822L54.1763 48.1426L65.1584 40.0875H51.5855Z" fill="black"/>
</g>
</g>
</g>
</svg>
