<svg width="1148" height="495" viewBox="0 0 1148 495" fill="none" xmlns="http://www.w3.org/2000/svg">
<path id="Vector 2" d="M483.762 44.0543L483.091 45.1089L483.091 45.1089L483.762 44.0543ZM442.521 441.801C441.831 441.782 441.255 442.325 441.236 443.015L440.918 454.261C440.899 454.951 441.443 455.526 442.133 455.546C442.823 455.565 443.398 455.022 443.417 454.331L443.7 444.335L453.696 444.618C454.386 444.637 454.961 444.093 454.98 443.403C455 442.713 454.456 442.138 453.766 442.119L442.521 441.801ZM-2.77041 37.9178C185.688 2.7037 298.243 -1.15636 368.131 6.60954C403.064 10.4913 427.324 17.2765 445.07 24.495C462.814 31.7132 474.078 39.3755 483.091 45.1089L484.433 42.9996C475.45 37.2848 463.999 29.4963 446.012 22.1793C428.025 14.8626 403.537 8.02841 368.407 4.12483C298.169 -3.67996 185.339 0.225591 -3.22959 35.4603L-2.77041 37.9178ZM483.091 45.1089C504.054 58.4448 539.728 70.1887 583.685 79.4063C627.682 88.6324 680.111 95.3537 734.683 98.5789C843.778 105.026 961.66 97.5147 1037.92 67.9554L1037.02 65.6244C961.267 94.9859 843.822 102.525 734.83 96.0833C680.359 92.8641 628.055 86.1562 584.198 76.9595C540.3 67.7543 504.998 56.082 484.433 42.9996L483.091 45.1089ZM1037.92 67.9554C1056.62 60.7073 1072.75 61.9451 1086.41 69.4835C1100.13 77.0511 1111.51 91.0525 1120.47 109.608C1138.41 146.725 1146.46 201.606 1144.45 257.717C1142.44 313.818 1130.38 370.945 1108.29 412.539C1086.19 454.138 1054.26 479.896 1012.47 474.155L1012.13 476.631C1055.42 482.579 1088.17 455.74 1110.5 413.711C1132.82 371.677 1144.93 314.144 1146.95 257.807C1148.96 201.481 1140.91 146.145 1122.72 108.52C1113.63 89.705 1101.95 75.2041 1087.62 67.2947C1073.23 59.3562 1056.33 58.1422 1037.02 65.6244L1037.92 67.9554ZM1012.47 474.155C969.8 468.292 918.974 469.883 865.273 473.911C838.414 475.926 810.814 478.553 783.138 481.168C755.457 483.783 727.698 486.386 700.5 488.356C646.091 492.298 594.004 493.7 549.385 487.619C504.752 481.536 467.774 467.989 443.394 442.192L441.577 443.909C466.527 470.309 504.175 483.98 549.047 490.096C593.935 496.213 646.235 494.794 700.68 490.85C727.91 488.877 755.695 486.272 783.373 483.657C811.056 481.042 838.63 478.417 865.46 476.404C919.134 472.378 969.738 470.806 1012.13 476.631L1012.47 474.155Z" fill="white"/>
</svg>
